<svg xmlns="http://www.w3.org/2000/svg" width="10" height="10" fill="none" viewBox="0 0 10 10"><path fill="#A6A5A8" d="M5 0C2.23828 0 0 2.23828 0 5C0 7.76172 2.23828 10 5 10C7.76172 10 10 7.76172 10 5C10 2.23828 7.76172 0 5 0ZM5 9.375C2.58789 9.375 0.625 7.41211 0.625 5C0.625 2.58789 2.58789 0.625 5 0.625C7.41211 0.625 9.375 2.58789 9.375 5C9.375 7.41211 7.41211 9.375 5 9.375ZM4.6875 6.71875C4.42871 6.71875 4.21875 6.92871 4.21875 7.1875C4.21875 7.44629 4.42871 7.65625 4.6875 7.65625C4.94629 7.65625 5.15625 7.44629 5.15625 7.1875C5.15625 6.92871 4.94727 6.71875 4.6875 6.71875ZM5.57812 2.5H4.42188C3.70703 2.5 3.125 3.08203 3.125 3.79688V3.98438C3.125 4.15711 3.26477 4.29688 3.4375 4.29688C3.61023 4.29688 3.75 4.15625 3.75 3.98438V3.79688C3.75 3.42578 4.05078 3.125 4.42188 3.125H5.5791C5.94922 3.125 6.25 3.42578 6.25 3.79688C6.25 4.04063 6.11756 4.26562 5.9168 4.37734L4.73633 4.9668C4.51367 5.0918 4.375 5.32617 4.375 5.58203V5.9375C4.375 6.10938 4.51562 6.25 4.6875 6.25C4.85938 6.25 5 6.10938 5 5.9375V5.58203C5 5.55365 5.01525 5.5274 5.02809 5.52008L6.20797 4.92984C6.61914 4.70117 6.875 4.26758 6.875 3.79688C6.875 3.08203 6.29297 2.5 5.57812 2.5Z"/></svg>