<svg width="24" height="24" viewBox="0 0 24 24" fill="none" xmlns="http://www.w3.org/2000/svg"><path fill-rule="evenodd" clip-rule="evenodd" d="M8.25 17.8L12 19.8L15.75 17.8L18 19V4H6V19L8.25 17.8ZM15.75 19.5L18.7647 21.1078C19.0978 21.2855 19.5 21.0441 19.5 20.6667V3.5C19.5 2.94772 19.0523 2.5 18.5 2.5H5.5C4.94772 2.5 4.5 2.94771 4.5 3.5V20.6667C4.5 21.0441 4.90224 21.2855 5.23529 21.1078L8.25 19.5L11.7647 21.3745C11.9118 21.4529 12.0882 21.4529 12.2353 21.3745L15.75 19.5Z" fill="#3F3E3E"/><path fill-rule="evenodd" clip-rule="evenodd" d="M7.85547 9.87947C7.85547 9.4224 8.22599 9.05188 8.68305 9.05188H15.1446C15.6017 9.05188 15.9722 9.4224 15.9722 9.87947C15.9722 10.3365 15.6017 10.7071 15.1446 10.7071H8.68305C8.22599 10.7071 7.85547 10.3365 7.85547 9.87947Z" fill="#3F3E3E"/><path fill-rule="evenodd" clip-rule="evenodd" d="M7.85547 13.0375C7.85547 12.5805 8.22599 12.21 8.68305 12.21H15.1446C15.6017 12.21 15.9722 12.5805 15.9722 13.0375C15.9722 13.4946 15.6017 13.8651 15.1446 13.8651H8.68305C8.22599 13.8651 7.85547 13.4946 7.85547 13.0375Z" fill="#3F3E3E"/></svg>